<svg width="164" height="167" viewBox="0 0 164 167" fill="none" xmlns="http://www.w3.org/2000/svg">
<path d="M163.227 85.1296C163.227 78.2823 162.671 73.2856 161.469 68.1038H83.2791V99.0092H129.175C128.25 106.69 123.253 118.256 112.149 126.029L111.993 127.063L136.715 146.215L138.428 146.386C154.158 131.858 163.227 110.483 163.227 85.1296Z" fill="#4285F4"/>
<path d="M83.279 166.558C105.764 166.558 124.64 159.155 138.428 146.386L112.149 126.029C105.117 130.933 95.6781 134.356 83.279 134.356C61.2565 134.356 42.5651 119.829 35.9022 99.7498L34.9255 99.8328L9.21905 119.727L8.88287 120.662C22.5775 147.866 50.7074 166.558 83.279 166.558Z" fill="#34A853"/>
<path d="M35.9022 99.7498C34.1441 94.5681 33.1266 89.0157 33.1266 83.279C33.1266 77.5417 34.1441 71.99 35.8097 66.8082L35.7631 65.7046L9.73449 45.4906L8.88288 45.8956C3.23866 57.1847 0 69.8619 0 83.279C0 96.6962 3.23866 109.373 8.88288 120.662L35.9022 99.7498Z" fill="#FBBC05"/>
<path d="M83.279 32.201C98.9167 32.201 109.465 38.9558 115.48 44.6007L138.983 21.6525C124.549 8.23541 105.764 0 83.279 0C50.7074 0 22.5775 18.6914 8.88287 45.8956L35.8097 66.8082C42.5651 46.7288 61.2565 32.201 83.279 32.201Z" fill="#EB4335"/>
</svg>
