<svg width="142" height="137" viewBox="0 0 142 137" fill="none" xmlns="http://www.w3.org/2000/svg">
<path d="M132.682 132.192L102.099 123.086L79.036 136.873L62.944 136.866L39.867 123.086L9.298 132.192L0 100.801L9.299 65.962L0 36.507L9.299 0L57.065 28.538H84.915L132.682 0L141.981 36.507L132.682 65.962L141.981 100.801L132.682 132.192Z" fill="#FF5C16"/>
<path d="M9.30499 0L57.072 28.558L55.173 48.157L9.30499 0ZM39.875 100.814L60.892 116.824L39.875 123.085V100.814ZM59.212 74.345L55.173 48.171L29.317 65.97L29.303 65.963V65.976L29.383 84.297L39.868 74.346L59.212 74.345ZM132.682 0L84.915 28.558L86.808 48.157L132.682 0ZM102.113 100.814L81.095 116.824L102.113 123.085V100.814ZM112.678 65.975V65.962L112.672 65.969L86.815 48.171L82.776 74.345H102.112L112.604 84.295L112.678 65.975Z" fill="#FF5C16"/>
<path d="M39.868 123.085L9.299 132.191L0 100.814H39.868V123.085ZM59.205 74.338L65.044 112.178L56.951 91.138L29.37 84.295L39.861 74.339L59.205 74.338ZM102.112 123.085L132.682 132.191L141.981 100.813H102.112C102.112 100.814 102.112 123.085 102.112 123.085ZM82.776 74.338L76.937 112.178L85.029 91.138L112.612 84.295L102.114 74.339L82.776 74.338Z" fill="#E34807"/>
<path d="M0 100.801L9.299 65.962H29.296L29.369 84.289L56.953 91.132L65.045 112.171L60.885 116.804L39.868 100.794H0V100.801ZM141.981 100.801L132.682 65.962H112.684L112.611 84.289L85.029 91.132L76.936 112.171L81.095 116.804L102.113 100.794H141.981V100.801ZM84.915 28.538H57.065L55.174 48.137L65.046 112.15H76.937L86.815 48.137L84.915 28.538Z" fill="#FF8D5D"/>
<path d="M9.299 0L0 36.507L9.299 65.962H29.296L55.166 48.158L9.299 0ZM53.426 81.938H44.367L39.435 86.773L56.959 91.117L53.426 81.931V81.938ZM132.682 0L141.981 36.507L132.682 65.962H112.684L86.815 48.158L132.682 0ZM88.568 81.938H97.64L102.572 86.779L85.028 91.132L88.568 81.931V81.938ZM79.029 124.385L81.096 116.818L76.936 112.185H65.036L60.877 116.818L62.943 124.385" fill="#661800"/>
<path d="M79.029 124.384V136.879H62.945V124.384H79.029Z" fill="#C0C4CD"/>
<path d="M39.875 123.072L62.958 136.872V124.377L60.891 116.811L39.875 123.072ZM102.113 123.072L79.029 136.872V124.377L81.096 116.811L102.113 123.072Z" fill="#E7EBF6"/>
</svg>
